<mxfile host="app.diagrams.net" agent="Mozilla/5.0 (Windows NT 10.0; Win64; x64) AppleWebKit/537.36 (KHTML, like Gecko) Chrome/138.0.0.0 Safari/537.36" version="28.0.4">
  <diagram name="Page-1" id="5CAGZLIoX6DbEjVKw_Rd">
    <mxGraphModel dx="1426" dy="743" grid="1" gridSize="10" guides="1" tooltips="1" connect="1" arrows="1" fold="1" page="1" pageScale="1" pageWidth="850" pageHeight="1100" math="0" shadow="0">
      <root>
        <mxCell id="0" />
        <mxCell id="1" parent="0" />
        <mxCell id="aNT8OxxLofMs8EW6GHOt-1" value="All" style="ellipse;whiteSpace=wrap;html=1;aspect=fixed;" vertex="1" parent="1">
          <mxGeometry x="350" y="210" width="80" height="80" as="geometry" />
        </mxCell>
        <mxCell id="aNT8OxxLofMs8EW6GHOt-2" value="explnantion based" style="ellipse;whiteSpace=wrap;html=1;aspect=fixed;" vertex="1" parent="1">
          <mxGeometry x="470" y="120" width="80" height="80" as="geometry" />
        </mxCell>
        <mxCell id="aNT8OxxLofMs8EW6GHOt-3" value="user training" style="ellipse;whiteSpace=wrap;html=1;aspect=fixed;" vertex="1" parent="1">
          <mxGeometry x="480" y="300" width="80" height="80" as="geometry" />
        </mxCell>
        <mxCell id="aNT8OxxLofMs8EW6GHOt-4" value="Cognitive forcing" style="ellipse;whiteSpace=wrap;html=1;aspect=fixed;" vertex="1" parent="1">
          <mxGeometry x="210" y="310" width="80" height="80" as="geometry" />
        </mxCell>
        <mxCell id="aNT8OxxLofMs8EW6GHOt-5" value="Self assessement" style="ellipse;whiteSpace=wrap;html=1;aspect=fixed;" vertex="1" parent="1">
          <mxGeometry x="210" y="120" width="80" height="80" as="geometry" />
        </mxCell>
      </root>
    </mxGraphModel>
  </diagram>
</mxfile>
